<svg id="Capa_1" data-name="Capa 1" xmlns="http://www.w3.org/2000/svg" viewBox="0 0 704.65 102.38"><defs><style>.cls-1{fill:#d90046;}</style></defs><title>logo-mail</title><g id="Bag"><path class="cls-1" d="M518.09,276.83h-14.6a14.76,14.76,0,0,0-29.46,0H459.91L455.15,335h67.7Zm-29.33-9.06a12.39,12.39,0,0,1,11.93,9.06H476.83A12.39,12.39,0,0,1,488.76,267.77Z" transform="translate(-80.77 -255.08)"/></g><path class="cls-1" d="M144.94,270.39H120.29v63.95H105.42V270.39H80.77V257.25h64.17Z" transform="translate(-80.77 -255.08)"/><path class="cls-1" d="M158.84,335.43q-8.81,0-13.36-5.65t-4.56-16.72V277.45h14.55v32.46q0,13.14,9.45,13.14a14.93,14.93,0,0,0,8.19-2.55,18.23,18.23,0,0,0,6.46-7.77V277.45h14.55v40.17a5.07,5.07,0,0,0,.82,3.26A3.56,3.56,0,0,0,197.6,322v12.38a30.08,30.08,0,0,1-3.64.54c-1,.07-1.86.11-2.66.11A10.5,10.5,0,0,1,185,333.2a7,7,0,0,1-2.88-4.94l-.32-4.56a24.26,24.26,0,0,1-9.78,8.79A29.32,29.32,0,0,1,158.84,335.43Z" transform="translate(-80.77 -255.08)"/><path class="cls-1" d="M205,305.89A31.07,31.07,0,0,1,207,294.6a27.61,27.61,0,0,1,6-9.33,29.09,29.09,0,0,1,9.45-6.41A31.26,31.26,0,0,1,235,276.47q9.33,0,15.9,4A25.68,25.68,0,0,1,260.68,291l-14.23,4.34a12.78,12.78,0,0,0-4.88-4.83,13.69,13.69,0,0,0-6.73-1.68A13.93,13.93,0,0,0,229,290.1a14.41,14.41,0,0,0-4.72,3.47A16.16,16.16,0,0,0,221.1,299a20.25,20.25,0,0,0-1.14,6.94,19.35,19.35,0,0,0,1.2,6.95,17.37,17.37,0,0,0,3.2,5.43,14,14,0,0,0,4.72,3.53,13.66,13.66,0,0,0,5.76,1.25,13.91,13.91,0,0,0,7.22-2,11,11,0,0,0,4.61-4.77l14.23,4.34a24,24,0,0,1-9.67,10.64,30.38,30.38,0,0,1-16.18,4.13A31.24,31.24,0,0,1,222.57,333a28.23,28.23,0,0,1-15.47-15.91A30.41,30.41,0,0,1,205,305.89Z" transform="translate(-80.77 -255.08)"/><path class="cls-1" d="M287.17,335.43q-8.79,0-13.36-5.65t-4.56-16.72V277.45H283.8v32.46q0,13.14,9.45,13.14a15,15,0,0,0,8.2-2.55,18.37,18.37,0,0,0,6.46-7.77V277.45h14.55v40.17a5.14,5.14,0,0,0,.81,3.26,3.56,3.56,0,0,0,2.66,1.08v12.38a30.08,30.08,0,0,1-3.64.54c-1,.07-1.86.11-2.66.11a10.52,10.52,0,0,1-6.35-1.79,7,7,0,0,1-2.88-4.94l-.32-4.56a24.24,24.24,0,0,1-9.77,8.79A29.36,29.36,0,0,1,287.17,335.43Z" transform="translate(-80.77 -255.08)"/><path class="cls-1" d="M358.39,335.43a44,44,0,0,1-14-2.28,34.26,34.26,0,0,1-11.73-6.52l5.43-9.12a46.49,46.49,0,0,0,10.15,5.59,27.14,27.14,0,0,0,9.83,1.9,12.41,12.41,0,0,0,6.84-1.63,5.24,5.24,0,0,0,2.49-4.66,4.67,4.67,0,0,0-2.93-4.46,63.47,63.47,0,0,0-9.55-3.25q-5.54-1.53-9.45-2.93a24.27,24.27,0,0,1-6.3-3.21,10.93,10.93,0,0,1-3.47-4.12,13.24,13.24,0,0,1-1.09-5.59,17.6,17.6,0,0,1,1.69-7.82,17,17,0,0,1,4.72-5.92,21.73,21.73,0,0,1,7.11-3.74,28.86,28.86,0,0,1,8.85-1.31,38.09,38.09,0,0,1,12,1.85,29.37,29.37,0,0,1,10.26,6L373.38,293A34.15,34.15,0,0,0,365,288.2a22.83,22.83,0,0,0-8.09-1.52,11.67,11.67,0,0,0-6.19,1.52,5.28,5.28,0,0,0-2.49,4.88,4.7,4.7,0,0,0,.59,2.5,5.31,5.31,0,0,0,1.9,1.74,19.1,19.1,0,0,0,3.42,1.46q2.11.71,5.27,1.47,5.86,1.51,10,3a27.21,27.21,0,0,1,6.84,3.47,12.46,12.46,0,0,1,3.91,4.51,13.85,13.85,0,0,1,1.25,6.13,15.81,15.81,0,0,1-6.19,13.19Q369,335.44,358.39,335.43Z" transform="translate(-80.77 -255.08)"/><path class="cls-1" d="M443.73,334.34H429.18V302.42q0-6.74-2.5-9.93a8.4,8.4,0,0,0-7.05-3.21,11.1,11.1,0,0,0-4.13.87,16.5,16.5,0,0,0-4.13,2.44,21,21,0,0,0-3.58,3.75,15,15,0,0,0-2.39,4.78v33.22H390.85V255.08H405.4V288a21.9,21.9,0,0,1,8.53-8.52,24,24,0,0,1,11.88-3,18.69,18.69,0,0,1,9,1.9,14.36,14.36,0,0,1,5.42,5.05,20.74,20.74,0,0,1,2.72,7.16,44.92,44.92,0,0,1,.76,8.26Z" transform="translate(-80.77 -255.08)"/><path class="cls-1" d="M568.69,335.43a22.37,22.37,0,0,1-11.72-3,21.24,21.24,0,0,1-7.82-8.09v33.12H534.6v-80h12.7v9.77a23.25,23.25,0,0,1,8.15-7.87A22.58,22.58,0,0,1,567,276.47a24.34,24.34,0,0,1,10.64,2.34A26.3,26.3,0,0,1,586,285.1a29.51,29.51,0,0,1,5.54,9.34,32.14,32.14,0,0,1,2,11.35,35.85,35.85,0,0,1-1.85,11.61,29.71,29.71,0,0,1-5.16,9.45,24.05,24.05,0,0,1-7.87,6.3A22,22,0,0,1,568.69,335.43Zm-4.88-12.38a13,13,0,0,0,6-1.41,14.68,14.68,0,0,0,4.73-3.8,18,18,0,0,0,3-5.54,19.93,19.93,0,0,0,1.08-6.51,18.51,18.51,0,0,0-1.19-6.68,16.47,16.47,0,0,0-3.32-5.38,15.39,15.39,0,0,0-5-3.58,14.94,14.94,0,0,0-6.24-1.3,13.69,13.69,0,0,0-4.24.7,15.08,15.08,0,0,0-4,2,17.69,17.69,0,0,0-3.31,3,12.53,12.53,0,0,0-2.23,3.8v13.36a19.37,19.37,0,0,0,6,8.09A13.69,13.69,0,0,0,563.81,323.05Z" transform="translate(-80.77 -255.08)"/><g id="Moda"><path class="cls-1" d="M612.46,298.13h3.29l-1.89,8.69a23.9,23.9,0,0,1,7.06-6.86A15.32,15.32,0,0,1,629,297.5q4.28,0,6.27,2.63c1.33,1.75,2,4.24,2,7.45a21.26,21.26,0,0,1,7.11-7.52A16.23,16.23,0,0,1,653,297.5c2.8,0,4.83.79,6.09,2.35s1.88,3.79,1.88,6.69a35.46,35.46,0,0,1-.83,7.07l-4.48,20.93h-3.5l4.34-20.3a31.94,31.94,0,0,0,.69-6.24q0-7.28-6-7.27a10.78,10.78,0,0,0-4.17.84,16.63,16.63,0,0,0-4,2.31,20.6,20.6,0,0,0-3.53,3.57,23.83,23.83,0,0,0-2.84,4.62L632,334.54h-3.5l4.26-20.3a31.32,31.32,0,0,0,.6-3.47,25.73,25.73,0,0,0,.18-2.9q0-7.14-5.95-7.14a11.54,11.54,0,0,0-4.2.8,15.27,15.27,0,0,0-4,2.31,21.57,21.57,0,0,0-3.5,3.57A28.32,28.32,0,0,0,613,312l-4.76,22.54h-3.5Z" transform="translate(-80.77 -255.08)"/><path class="cls-1" d="M680.35,335.24a12.79,12.79,0,0,1-5.63-1.2,12.12,12.12,0,0,1-4.2-3.25,15.28,15.28,0,0,1-2.66-4.83,18.14,18.14,0,0,1-.94-5.92,21.08,21.08,0,0,1,1.78-8.5,24.18,24.18,0,0,1,4.8-7.21,23.63,23.63,0,0,1,6.89-5,18.35,18.35,0,0,1,8-1.86,12.39,12.39,0,0,1,5.57,1.23,12.6,12.6,0,0,1,4.2,3.29,15.21,15.21,0,0,1,2.66,4.86,18.54,18.54,0,0,1,.94,5.95,20.69,20.69,0,0,1-1.78,8.41,24.85,24.85,0,0,1-4.76,7.17,23.36,23.36,0,0,1-6.83,5A18.26,18.26,0,0,1,680.35,335.24Zm.63-3.16a14,14,0,0,0,6.27-1.54,19,19,0,0,0,5.53-4.12,21.48,21.48,0,0,0,3.92-6,17.38,17.38,0,0,0,1.51-7.1,15.41,15.41,0,0,0-.78-5,12.9,12.9,0,0,0-2.13-4,9.92,9.92,0,0,0-3.33-2.7,9.39,9.39,0,0,0-4.26-1,13.54,13.54,0,0,0-6.2,1.54,19.54,19.54,0,0,0-5.5,4.16,21.35,21.35,0,0,0-4,6.06,17.79,17.79,0,0,0-1.51,7.21,15.12,15.12,0,0,0,.78,4.93,12.53,12.53,0,0,0,2.13,4,9.84,9.84,0,0,0,3.29,2.62A9.44,9.44,0,0,0,681,332.08Z" transform="translate(-80.77 -255.08)"/><path class="cls-1" d="M719.9,335.24a11.94,11.94,0,0,1-5.53-1.26,12.76,12.76,0,0,1-4.13-3.36,15,15,0,0,1-2.55-4.87,19,19,0,0,1-.88-5.84,21.34,21.34,0,0,1,1.68-8.3,25.11,25.11,0,0,1,4.52-7.17,22.45,22.45,0,0,1,6.51-5,16.42,16.42,0,0,1,7.66-1.9,11.46,11.46,0,0,1,4.1.71,12.34,12.34,0,0,1,3.32,1.85,12.14,12.14,0,0,1,2.52,2.69A14.8,14.8,0,0,1,738.8,306l4.76-22.6h3.57l-9.8,46.06a7.69,7.69,0,0,0-.14.83c0,.71.4,1.05,1.19,1.05l-.7,3.16a7.1,7.1,0,0,1-.84.07h-.7a2.4,2.4,0,0,1-2.38-2.53,2.5,2.5,0,0,1,0-.45c0-.16.06-.42.1-.77s.13-.81.25-1.36.27-1.31.45-2.25a22.12,22.12,0,0,1-6.86,5.82A16.4,16.4,0,0,1,719.9,335.24Zm1.33-3.16a12.22,12.22,0,0,0,4-.76,18.7,18.7,0,0,0,4.23-2.14,21.64,21.64,0,0,0,3.68-3.11,9.83,9.83,0,0,0,2.27-3.78l2.52-12a10.67,10.67,0,0,0-1.26-3.75,11.68,11.68,0,0,0-2.41-3.08,12,12,0,0,0-3.22-2.07,9.26,9.26,0,0,0-3.68-.76,13.43,13.43,0,0,0-6.51,1.67,19.26,19.26,0,0,0-5.39,4.38,21.47,21.47,0,0,0-3.64,6,17.84,17.84,0,0,0-1.33,6.61,15.54,15.54,0,0,0,.77,4.91,13.11,13.11,0,0,0,2.17,4.05,10.35,10.35,0,0,0,3.4,2.77A9.6,9.6,0,0,0,721.23,332.08Z" transform="translate(-80.77 -255.08)"/><path class="cls-1" d="M761.13,335.24a11.55,11.55,0,0,1-5.42-1.26,12.86,12.86,0,0,1-4.1-3.36,15,15,0,0,1-2.55-4.87,19,19,0,0,1-.88-5.84,21.34,21.34,0,0,1,1.68-8.3,25.11,25.11,0,0,1,4.52-7.17,22.69,22.69,0,0,1,6.47-5,16.24,16.24,0,0,1,7.63-1.9,11.69,11.69,0,0,1,4.17.71,12.34,12.34,0,0,1,3.32,1.85,12.14,12.14,0,0,1,2.52,2.69,14.8,14.8,0,0,1,1.68,3.29l1.68-7.91h3.57L778.7,329.5a4,4,0,0,0-.14.83c0,.71.4,1.05,1.19,1.05l-.7,3.16-.59.1-.46,0a3,3,0,0,1-2.13-.69,2.42,2.42,0,0,1-.74-1.82,3.79,3.79,0,0,1,0-.53c0-.21.07-.49.14-.84s.15-.8.24-1.37.24-1.28.42-2.17a22.12,22.12,0,0,1-6.86,5.82A16.65,16.65,0,0,1,761.13,335.24Zm1.26-3.16a12.18,12.18,0,0,0,4.13-.8,21.59,21.59,0,0,0,4.31-2.13A18.37,18.37,0,0,0,774.5,326a10.27,10.27,0,0,0,2.24-3.74l2.52-12a10.81,10.81,0,0,0-1.22-3.71,11.81,11.81,0,0,0-2.38-3.08,11.21,11.21,0,0,0-3.26-2.11,10,10,0,0,0-3.92-.76,12.87,12.87,0,0,0-6.37,1.67,19.09,19.09,0,0,0-5.28,4.38,22.37,22.37,0,0,0-3.64,6.06,17.71,17.71,0,0,0-1.37,6.72,15.27,15.27,0,0,0,.77,4.83,12.72,12.72,0,0,0,2.17,4,10.81,10.81,0,0,0,3.36,2.73A9.11,9.11,0,0,0,762.39,332.08Z" transform="translate(-80.77 -255.08)"/></g></svg>